# xmcd
#
# Track frame offsets:
#	150
#	31075
#	48352
#	72510
#	89227
#	112967
#	135320
#	156045
#	176072
#	189877
#	215284
#	231450
#	251400
#
# Disc length: 3633 seconds
#
# Revision: 5
# Processed by: cddbd v1.5.1PL0 Copyright (c) Steve Scherf et al.
# Submitted via: audiograbber 1.83.01
#
DISCID=ae0e2f0d
DTITLE=Ruth Brown - R+B =Ruth Brown
DYEAR=1997
DGENRE=Blues
TTITLE0=That Train Don't Stop Here
TTITLE1=In Another World
TTITLE2=I'm Gonna Move To The Outskirts Of Town
TTITLE3=Destination Heartbreak
TTITLE4=Too Little Too Late
TTITLE5=Sold My Heart To The Junkman
TTITLE6=Go On Fool
TTITLE7=False Friend Blues
TTITLE8=Break It To Me Gently
TTITLE9=I Don't Know
TTITLE10=Bite My Tongue
TTITLE11=Love Letters
TTITLE12=Can't Get Excited
EXTD=
EXTT0=
EXTT1=
EXTT2=
EXTT3=
EXTT4=
EXTT5=
EXTT6=
EXTT7=
EXTT8=
EXTT9=
EXTT10=
EXTT11=
EXTT12=
PLAYORDER=
